<svg xmlns="http://www.w3.org/2000/svg" viewBox="0 0 1600 900" width="1600" height="900">
      <defs>
        <linearGradient id="bg" x1="0%" y1="0%" x2="100%" y2="100%" gradientTransform="rotate(154 0.5 0.5)">
          <stop offset="0%" stop-color="hsl(0 0% 2%)" />
          <stop offset="45%" stop-color="hsl(35 35% 10%)" />
          <stop offset="78%" stop-color="hsl(35 80% 30%)" />
          <stop offset="100%" stop-color="hsl(35 95% 48%)" />
        </linearGradient></defs>
      <rect width="1600" height="900" fill="url(#bg)" />
      <g><line x1="-120" y1="900" x2="380" y2="0" stroke="hsl(35 80% 65% / 0.09)" stroke-width="2"/><line x1="-30" y1="900" x2="470" y2="0" stroke="hsl(35 80% 65% / 0.09)" stroke-width="2"/><line x1="60" y1="900" x2="560" y2="0" stroke="hsl(35 80% 65% / 0.09)" stroke-width="2"/><line x1="150" y1="900" x2="650" y2="0" stroke="hsl(35 80% 65% / 0.09)" stroke-width="2"/><line x1="240" y1="900" x2="740" y2="0" stroke="hsl(35 80% 65% / 0.09)" stroke-width="2"/><line x1="330" y1="900" x2="830" y2="0" stroke="hsl(35 80% 65% / 0.09)" stroke-width="2"/></g>
      <g transform="translate(128 126.00000000000001) scale(22)" fill="none" stroke="hsl(35 95% 70% / 0.22)" stroke-width="1" stroke-linecap="round" stroke-linejoin="round">
        <path d="M14 9.536V7a4 4 0 0 1 4-4h1.5a.5.5 0 0 1 .5.5V5a4 4 0 0 1-4 4 4 4 0 0 0-4 4c0 2 1 3 1 5a5 5 0 0 1-1 3" /><path d="M4 9a5 5 0 0 1 8 4 5 5 0 0 1-8-4" /><path d="M5 21h14" />
      </g>
      <rect width="1600" height="900" fill="black" opacity="0.18" />
    </svg>