<svg xmlns="http://www.w3.org/2000/svg" viewBox="0 0 1600 900" width="1600" height="900">
      <defs>
        <radialGradient id="bg" cx="56%" cy="34%" r="90%">
          <stop offset="0%" stop-color="hsl(57 90% 42%)" />
          <stop offset="35%" stop-color="hsl(57 75% 20%)" />
          <stop offset="70%" stop-color="hsl(57 30% 7%)" />
          <stop offset="100%" stop-color="hsl(0 0% 2%)" />
        </radialGradient></defs>
      <rect width="1600" height="900" fill="url(#bg)" />
      <g><line x1="-120" y1="900" x2="380" y2="0" stroke="hsl(57 80% 65% / 0.09)" stroke-width="2"/><line x1="-30" y1="900" x2="470" y2="0" stroke="hsl(57 80% 65% / 0.09)" stroke-width="2"/><line x1="60" y1="900" x2="560" y2="0" stroke="hsl(57 80% 65% / 0.09)" stroke-width="2"/><line x1="150" y1="900" x2="650" y2="0" stroke="hsl(57 80% 65% / 0.09)" stroke-width="2"/><line x1="240" y1="900" x2="740" y2="0" stroke="hsl(57 80% 65% / 0.09)" stroke-width="2"/><line x1="330" y1="900" x2="830" y2="0" stroke="hsl(57 80% 65% / 0.09)" stroke-width="2"/></g>
      <g transform="translate(992 126.00000000000001) scale(22)" fill="none" stroke="hsl(57 95% 70% / 0.22)" stroke-width="1" stroke-linecap="round" stroke-linejoin="round">
        <path d="M16 10a4 4 0 0 1-8 0" /><path d="M3.103 6.034h17.794" /><path d="M3.4 5.467a2 2 0 0 0-.4 1.2V20a2 2 0 0 0 2 2h14a2 2 0 0 0 2-2V6.667a2 2 0 0 0-.4-1.2l-2-2.667A2 2 0 0 0 17 2H7a2 2 0 0 0-1.6.8z" />
      </g>
      <rect width="1600" height="900" fill="black" opacity="0.18" />
    </svg>