<svg xmlns="http://www.w3.org/2000/svg" viewBox="0 0 1600 900" width="1600" height="900">
      <defs>
        <radialGradient id="bg" cx="20%" cy="30%" r="90%">
          <stop offset="0%" stop-color="hsl(45 90% 42%)" />
          <stop offset="35%" stop-color="hsl(45 75% 20%)" />
          <stop offset="70%" stop-color="hsl(45 30% 7%)" />
          <stop offset="100%" stop-color="hsl(0 0% 2%)" />
        </radialGradient></defs>
      <rect width="1600" height="900" fill="url(#bg)" />
      <g><line x1="-120" y1="900" x2="380" y2="0" stroke="hsl(45 80% 65% / 0.09)" stroke-width="2"/><line x1="-30" y1="900" x2="470" y2="0" stroke="hsl(45 80% 65% / 0.09)" stroke-width="2"/><line x1="60" y1="900" x2="560" y2="0" stroke="hsl(45 80% 65% / 0.09)" stroke-width="2"/><line x1="150" y1="900" x2="650" y2="0" stroke="hsl(45 80% 65% / 0.09)" stroke-width="2"/><line x1="240" y1="900" x2="740" y2="0" stroke="hsl(45 80% 65% / 0.09)" stroke-width="2"/><line x1="330" y1="900" x2="830" y2="0" stroke="hsl(45 80% 65% / 0.09)" stroke-width="2"/></g>
      <g transform="translate(992 126.00000000000001) scale(22)" fill="none" stroke="hsl(45 95% 70% / 0.22)" stroke-width="1" stroke-linecap="round" stroke-linejoin="round">
        <path d="M10 10V5a1 1 0 0 1 1-1h2a1 1 0 0 1 1 1v5" /><path d="M14 6a6 6 0 0 1 6 6v3" /><path d="M4 15v-3a6 6 0 0 1 6-6" /><rect x="2" y="15" width="20" height="4" rx="1" />
      </g>
      <rect width="1600" height="900" fill="black" opacity="0.18" />
    </svg>