<svg xmlns="http://www.w3.org/2000/svg" viewBox="0 0 1600 900" width="1600" height="900">
      <defs>
        <linearGradient id="bg" x1="0%" y1="0%" x2="100%" y2="100%" gradientTransform="rotate(43 0.5 0.5)">
          <stop offset="0%" stop-color="hsl(0 0% 2%)" />
          <stop offset="45%" stop-color="hsl(61 35% 10%)" />
          <stop offset="78%" stop-color="hsl(61 80% 30%)" />
          <stop offset="100%" stop-color="hsl(61 95% 48%)" />
        </linearGradient></defs>
      <rect width="1600" height="900" fill="url(#bg)" />
      <g><line x1="-120" y1="900" x2="380" y2="0" stroke="hsl(61 80% 65% / 0.09)" stroke-width="2"/><line x1="-30" y1="900" x2="470" y2="0" stroke="hsl(61 80% 65% / 0.09)" stroke-width="2"/><line x1="60" y1="900" x2="560" y2="0" stroke="hsl(61 80% 65% / 0.09)" stroke-width="2"/><line x1="150" y1="900" x2="650" y2="0" stroke="hsl(61 80% 65% / 0.09)" stroke-width="2"/><line x1="240" y1="900" x2="740" y2="0" stroke="hsl(61 80% 65% / 0.09)" stroke-width="2"/><line x1="330" y1="900" x2="830" y2="0" stroke="hsl(61 80% 65% / 0.09)" stroke-width="2"/></g>
      <g transform="translate(992 126.00000000000001) scale(22)" fill="none" stroke="hsl(61 95% 70% / 0.22)" stroke-width="1" stroke-linecap="round" stroke-linejoin="round">
        <path d="M20 9V6a2 2 0 0 0-2-2H6a2 2 0 0 0-2 2v3" /><path d="M2 16a2 2 0 0 0 2 2h16a2 2 0 0 0 2-2v-5a2 2 0 0 0-4 0v1.5a.5.5 0 0 1-.5.5h-11a.5.5 0 0 1-.5-.5V11a2 2 0 0 0-4 0z" /><path d="M4 18v2" /><path d="M20 18v2" /><path d="M12 4v9" />
      </g>
      <rect width="1600" height="900" fill="black" opacity="0.18" />
    </svg>