<svg xmlns="http://www.w3.org/2000/svg" viewBox="0 0 1600 900" width="1600" height="900">
      <defs>
        <radialGradient id="bg" cx="59%" cy="41%" r="90%">
          <stop offset="0%" stop-color="hsl(33 90% 42%)" />
          <stop offset="35%" stop-color="hsl(33 75% 20%)" />
          <stop offset="70%" stop-color="hsl(33 30% 7%)" />
          <stop offset="100%" stop-color="hsl(0 0% 2%)" />
        </radialGradient></defs>
      <rect width="1600" height="900" fill="url(#bg)" />
      <g><line x1="-120" y1="900" x2="380" y2="0" stroke="hsl(33 80% 65% / 0.09)" stroke-width="2"/><line x1="-30" y1="900" x2="470" y2="0" stroke="hsl(33 80% 65% / 0.09)" stroke-width="2"/><line x1="60" y1="900" x2="560" y2="0" stroke="hsl(33 80% 65% / 0.09)" stroke-width="2"/><line x1="150" y1="900" x2="650" y2="0" stroke="hsl(33 80% 65% / 0.09)" stroke-width="2"/><line x1="240" y1="900" x2="740" y2="0" stroke="hsl(33 80% 65% / 0.09)" stroke-width="2"/><line x1="330" y1="900" x2="830" y2="0" stroke="hsl(33 80% 65% / 0.09)" stroke-width="2"/></g>
      <g transform="translate(128 126.00000000000001) scale(22)" fill="none" stroke="hsl(33 95% 70% / 0.22)" stroke-width="1" stroke-linecap="round" stroke-linejoin="round">
        <path d="M12 16h.01" /><path d="M16 16h.01" /><path d="M3 19a2 2 0 0 0 2 2h14a2 2 0 0 0 2-2V8.5a.5.5 0 0 0-.769-.422l-4.462 2.844A.5.5 0 0 1 15 10.5v-2a.5.5 0 0 0-.769-.422L9.77 10.922A.5.5 0 0 1 9 10.5V5a2 2 0 0 0-2-2H5a2 2 0 0 0-2 2z" /><path d="M8 16h.01" />
      </g>
      <rect width="1600" height="900" fill="black" opacity="0.18" />
    </svg>