<svg xmlns="http://www.w3.org/2000/svg" viewBox="0 0 1600 900" width="1600" height="900">
      <defs>
        <radialGradient id="bg" cx="77%" cy="63%" r="90%">
          <stop offset="0%" stop-color="hsl(45 90% 42%)" />
          <stop offset="35%" stop-color="hsl(45 75% 20%)" />
          <stop offset="70%" stop-color="hsl(45 30% 7%)" />
          <stop offset="100%" stop-color="hsl(0 0% 2%)" />
        </radialGradient></defs>
      <rect width="1600" height="900" fill="url(#bg)" />
      <g><line x1="-120" y1="900" x2="380" y2="0" stroke="hsl(45 80% 65% / 0.09)" stroke-width="2"/><line x1="-30" y1="900" x2="470" y2="0" stroke="hsl(45 80% 65% / 0.09)" stroke-width="2"/><line x1="60" y1="900" x2="560" y2="0" stroke="hsl(45 80% 65% / 0.09)" stroke-width="2"/><line x1="150" y1="900" x2="650" y2="0" stroke="hsl(45 80% 65% / 0.09)" stroke-width="2"/><line x1="240" y1="900" x2="740" y2="0" stroke="hsl(45 80% 65% / 0.09)" stroke-width="2"/><line x1="330" y1="900" x2="830" y2="0" stroke="hsl(45 80% 65% / 0.09)" stroke-width="2"/></g>
      <g transform="translate(128 126.00000000000001) scale(22)" fill="none" stroke="hsl(45 95% 70% / 0.22)" stroke-width="1" stroke-linecap="round" stroke-linejoin="round">
        <path d="M20.2 6 3 11l-.9-2.4c-.3-1.1.3-2.2 1.3-2.5l13.5-4c1.1-.3 2.2.3 2.5 1.3Z" /><path d="m6.2 5.3 3.1 3.9" /><path d="m12.4 3.4 3.1 4" /><path d="M3 11h18v8a2 2 0 0 1-2 2H5a2 2 0 0 1-2-2Z" />
      </g>
      <rect width="1600" height="900" fill="black" opacity="0.18" />
    </svg>