<svg xmlns="http://www.w3.org/2000/svg" viewBox="0 0 1600 900" width="1600" height="900">
      <defs>
        <linearGradient id="bg" x1="0%" y1="0%" x2="100%" y2="100%" gradientTransform="rotate(99 0.5 0.5)">
          <stop offset="0%" stop-color="hsl(0 0% 2%)" />
          <stop offset="45%" stop-color="hsl(53 35% 10%)" />
          <stop offset="78%" stop-color="hsl(53 80% 30%)" />
          <stop offset="100%" stop-color="hsl(53 95% 48%)" />
        </linearGradient></defs>
      <rect width="1600" height="900" fill="url(#bg)" />
      <g><line x1="-120" y1="900" x2="380" y2="0" stroke="hsl(53 80% 65% / 0.09)" stroke-width="2"/><line x1="-30" y1="900" x2="470" y2="0" stroke="hsl(53 80% 65% / 0.09)" stroke-width="2"/><line x1="60" y1="900" x2="560" y2="0" stroke="hsl(53 80% 65% / 0.09)" stroke-width="2"/><line x1="150" y1="900" x2="650" y2="0" stroke="hsl(53 80% 65% / 0.09)" stroke-width="2"/><line x1="240" y1="900" x2="740" y2="0" stroke="hsl(53 80% 65% / 0.09)" stroke-width="2"/><line x1="330" y1="900" x2="830" y2="0" stroke="hsl(53 80% 65% / 0.09)" stroke-width="2"/></g>
      <g transform="translate(992 126.00000000000001) scale(22)" fill="none" stroke="hsl(53 95% 70% / 0.22)" stroke-width="1" stroke-linecap="round" stroke-linejoin="round">
        <line x1="3" x2="15" y1="22" y2="22" /><line x1="4" x2="14" y1="9" y2="9" /><path d="M14 22V4a2 2 0 0 0-2-2H6a2 2 0 0 0-2 2v18" /><path d="M14 13h2a2 2 0 0 1 2 2v2a2 2 0 0 0 2 2a2 2 0 0 0 2-2V9.83a2 2 0 0 0-.59-1.42L18 5" />
      </g>
      <rect width="1600" height="900" fill="black" opacity="0.18" />
    </svg>