<svg xmlns="http://www.w3.org/2000/svg" viewBox="0 0 1600 900" width="1600" height="900">
      <defs>
        <radialGradient id="bg" cx="38%" cy="52%" r="90%">
          <stop offset="0%" stop-color="hsl(51 90% 42%)" />
          <stop offset="35%" stop-color="hsl(51 75% 20%)" />
          <stop offset="70%" stop-color="hsl(51 30% 7%)" />
          <stop offset="100%" stop-color="hsl(0 0% 2%)" />
        </radialGradient></defs>
      <rect width="1600" height="900" fill="url(#bg)" />
      <g><line x1="-120" y1="900" x2="380" y2="0" stroke="hsl(51 80% 65% / 0.09)" stroke-width="2"/><line x1="-30" y1="900" x2="470" y2="0" stroke="hsl(51 80% 65% / 0.09)" stroke-width="2"/><line x1="60" y1="900" x2="560" y2="0" stroke="hsl(51 80% 65% / 0.09)" stroke-width="2"/><line x1="150" y1="900" x2="650" y2="0" stroke="hsl(51 80% 65% / 0.09)" stroke-width="2"/><line x1="240" y1="900" x2="740" y2="0" stroke="hsl(51 80% 65% / 0.09)" stroke-width="2"/><line x1="330" y1="900" x2="830" y2="0" stroke="hsl(51 80% 65% / 0.09)" stroke-width="2"/></g>
      <g transform="translate(992 126.00000000000001) scale(22)" fill="none" stroke="hsl(51 95% 70% / 0.22)" stroke-width="1" stroke-linecap="round" stroke-linejoin="round">
        <path d="M10 18v-7" /><path d="M11.12 2.198a2 2 0 0 1 1.76.006l7.866 3.847c.476.233.31.949-.22.949H3.474c-.53 0-.695-.716-.22-.949z" /><path d="M14 18v-7" /><path d="M18 18v-7" /><path d="M3 22h18" /><path d="M6 18v-7" />
      </g>
      <rect width="1600" height="900" fill="black" opacity="0.18" />
    </svg>