<svg xmlns="http://www.w3.org/2000/svg" viewBox="0 0 1600 900" width="1600" height="900">
      <defs>
        <linearGradient id="bg" x1="0%" y1="0%" x2="100%" y2="100%" gradientTransform="rotate(80 0.5 0.5)">
          <stop offset="0%" stop-color="hsl(0 0% 2%)" />
          <stop offset="45%" stop-color="hsl(43 35% 10%)" />
          <stop offset="78%" stop-color="hsl(43 80% 30%)" />
          <stop offset="100%" stop-color="hsl(43 95% 48%)" />
        </linearGradient></defs>
      <rect width="1600" height="900" fill="url(#bg)" />
      <g><line x1="-120" y1="900" x2="380" y2="0" stroke="hsl(43 80% 65% / 0.09)" stroke-width="2"/><line x1="-30" y1="900" x2="470" y2="0" stroke="hsl(43 80% 65% / 0.09)" stroke-width="2"/><line x1="60" y1="900" x2="560" y2="0" stroke="hsl(43 80% 65% / 0.09)" stroke-width="2"/><line x1="150" y1="900" x2="650" y2="0" stroke="hsl(43 80% 65% / 0.09)" stroke-width="2"/><line x1="240" y1="900" x2="740" y2="0" stroke="hsl(43 80% 65% / 0.09)" stroke-width="2"/><line x1="330" y1="900" x2="830" y2="0" stroke="hsl(43 80% 65% / 0.09)" stroke-width="2"/></g>
      <g transform="translate(128 126.00000000000001) scale(22)" fill="none" stroke="hsl(43 95% 70% / 0.22)" stroke-width="1" stroke-linecap="round" stroke-linejoin="round">
        <path d="M14 18V6a2 2 0 0 0-2-2H4a2 2 0 0 0-2 2v11a1 1 0 0 0 1 1h2" /><path d="M15 18H9" /><path d="M19 18h2a1 1 0 0 0 1-1v-3.65a1 1 0 0 0-.22-.624l-3.48-4.35A1 1 0 0 0 17.52 8H14" /><circle cx="17" cy="18" r="2" /><circle cx="7" cy="18" r="2" />
      </g>
      <rect width="1600" height="900" fill="black" opacity="0.18" />
    </svg>